<?xml version="1.0" standalone="no"?>
<!DOCTYPE svg PUBLIC "-//W3C//DTD SVG 20010904//EN"
 "http://www.w3.org/TR/2001/REC-SVG-20010904/DTD/svg10.dtd">
<svg version="1.0" xmlns="http://www.w3.org/2000/svg"
 width="508.000000pt" height="720.000000pt" viewBox="0 0 508.000000 720.000000"
 preserveAspectRatio="xMidYMid meet">

<g transform="translate(0.000000,720.000000) scale(0.100000,-0.100000)"
fill="#000000" stroke="none">
<path d="M1857 6393 c-8 -14 9 -101 24 -119 19 -23 20 -434 1 -509 -16 -64
-20 -93 -21 -131 -1 -16 -7 -38 -14 -48 -13 -17 -15 -16 -34 15 -11 19 -28 59
-38 89 -10 30 -21 63 -26 72 -5 10 -9 25 -9 33 0 8 -4 15 -8 15 -4 0 -13 15
-20 33 -35 97 -100 164 -219 225 -23 11 -50 25 -60 31 -44 24 -94 45 -172 72
-47 16 -89 33 -95 39 -5 5 -16 10 -24 10 -7 0 -37 11 -67 25 -29 14 -77 33
-106 41 -30 9 -63 22 -74 30 -11 8 -34 14 -52 14 -17 0 -36 6 -40 14 -9 14
-113 30 -113 17 0 -5 7 -14 15 -21 8 -7 15 -18 15 -24 0 -7 18 -30 40 -52 22
-21 40 -47 40 -56 0 -10 4 -18 10 -18 5 0 17 -15 25 -32 8 -18 22 -44 29 -58
27 -48 45 -94 39 -104 -3 -5 -1 -6 4 -3 9 6 27 -46 20 -57 -1 -1 4 -10 12 -20
8 -9 18 -35 23 -59 5 -23 13 -60 18 -82 4 -22 11 -50 15 -61 9 -28 -27 -54
-73 -54 -42 0 -255 -47 -299 -66 -17 -8 -36 -14 -43 -14 -6 0 -32 -9 -58 -19
-90 -37 -212 -81 -219 -79 -15 3 -43 -14 -37 -23 3 -5 0 -9 -6 -9 -17 0 -161
-67 -227 -106 l-33 -19 0 -87 0 -87 38 -7 c98 -17 252 -63 252 -75 0 -5 3 -8
8 -7 12 2 192 -78 202 -91 3 -3 29 -17 58 -30 28 -14 52 -28 52 -33 0 -4 6 -8
14 -8 7 0 19 -6 25 -14 14 -17 3 -26 -62 -52 -58 -23 -226 -186 -271 -262 -10
-18 -23 -37 -65 -102 -9 -14 -30 -52 -46 -85 -17 -33 -32 -62 -35 -65 -13 -13
-62 -109 -115 -225 -20 -44 -40 -88 -46 -97 -5 -10 -9 -36 -9 -57 l0 -40 65
40 c35 21 71 39 79 39 8 0 16 4 18 8 4 11 132 60 178 68 19 3 64 15 100 25 36
10 81 21 100 23 19 2 53 7 75 10 83 12 285 15 278 3 -4 -7 0 -8 11 -4 9 4 -4
-20 -31 -54 -26 -33 -55 -70 -63 -82 -8 -12 -25 -35 -37 -50 -13 -16 -23 -36
-23 -46 0 -10 -7 -33 -16 -51 -14 -27 -18 -77 -22 -270 -5 -237 1 -350 19
-350 5 0 9 5 9 10 0 6 16 33 35 60 19 28 32 50 28 50 -5 1 1 8 12 18 11 9 26
28 33 42 7 14 19 36 26 49 20 33 108 121 122 121 9 0 11 -37 7 -144 -6 -142
-5 -145 21 -191 14 -26 26 -52 26 -57 0 -5 13 -29 30 -53 16 -24 30 -47 30
-51 0 -8 107 -144 126 -160 30 -24 -48 -55 -143 -56 -56 0 -73 -4 -73 -15 0
-8 -5 -11 -10 -8 -6 4 -9 3 -8 -2 1 -4 -10 -34 -25 -67 -16 -32 -26 -61 -23
-63 2 -2 -11 -20 -30 -40 -19 -20 -42 -50 -51 -67 -22 -43 -28 -18 -13 57 14
70 15 131 3 149 -6 11 -18 -34 -38 -155 -7 -43 -33 -76 -57 -72 -35 7 -48 24
-38 50 5 13 6 26 3 29 -4 3 -3 6 1 6 3 0 11 -12 17 -27 7 -19 13 -23 21 -15
16 16 22 106 8 131 l-12 23 -24 -23 c-13 -12 -24 -28 -24 -34 0 -6 -11 -22
-25 -35 -25 -24 -33 -58 -16 -75 10 -11 -22 -89 -32 -78 -15 14 -6 -12 10 -29
9 -10 24 -35 34 -56 10 -20 18 -30 18 -21 1 25 26 30 39 8 7 -10 8 -19 3 -19
-11 0 -61 -72 -61 -88 0 -15 55 -74 62 -66 3 3 18 -8 34 -24 16 -15 36 -31 46
-34 10 -5 20 -27 27 -65 7 -32 15 -65 20 -72 10 -19 53 -51 72 -55 8 -2 21 -6
29 -9 8 -3 27 -8 43 -11 22 -5 27 -12 28 -36 3 -55 9 -65 56 -88 28 -13 39
-26 48 -59 l13 -42 -35 -16 c-26 -13 -58 -16 -136 -14 -56 1 -109 6 -117 10
-20 9 -80 -16 -80 -34 0 -8 -33 -47 -73 -87 -97 -97 -103 -102 -129 -105 -13
-2 -50 -17 -83 -35 -106 -56 -247 -248 -277 -375 -30 -128 -31 -340 -2 -450 9
-33 17 -86 19 -117 2 -31 9 -66 15 -78 6 -12 13 -31 15 -42 3 -11 11 -28 20
-38 8 -9 15 -22 15 -29 0 -6 11 -24 25 -39 14 -15 25 -33 25 -40 0 -7 4 -11 8
-8 10 6 67 -53 67 -68 0 -6 11 -23 23 -36 40 -43 49 -54 67 -82 9 -16 22 -25
29 -21 6 3 8 2 3 -2 -11 -13 24 -45 50 -45 22 0 19 6 -36 72 -34 39 -59 74
-56 76 3 3 22 -6 42 -20 94 -63 213 -130 224 -126 14 5 -40 47 -141 110 -308
192 -340 235 -390 521 -28 164 -35 279 -21 363 27 154 162 362 279 431 53 32
220 105 326 144 61 22 91 28 121 24 264 -39 536 -101 579 -133 6 -5 31 -14 55
-21 23 -7 49 -15 57 -18 8 -3 14 1 14 10 0 16 -205 86 -350 121 -36 8 -114 27
-175 41 -60 15 -142 29 -180 32 -66 5 -75 3 -144 -31 -40 -21 -75 -36 -77 -34
-2 2 8 23 22 46 21 35 28 41 40 31 9 -7 14 -8 14 -1 0 6 -6 13 -12 16 -9 3 -6
11 11 25 21 19 32 21 120 16 289 -16 649 -73 885 -142 11 -3 16 -1 13 5 -4 5
-27 15 -52 22 -25 7 -43 15 -41 17 5 5 73 -13 193 -53 39 -13 77 -24 84 -24
19 0 1 14 -34 27 -24 9 -27 12 -12 13 15 2 12 4 -10 10 -72 21 -207 50 -295
65 -326 55 -396 65 -438 65 -35 0 -43 3 -34 12 6 6 25 11 42 11 17 0 26 3 20
7 -12 7 169 80 275 110 196 56 379 90 687 128 64 8 67 8 72 -14 3 -12 17 -35
30 -51 22 -26 23 -33 16 -103 -4 -41 -17 -101 -29 -133 -12 -31 -26 -92 -32
-135 -6 -47 -21 -100 -39 -137 -24 -51 -73 -209 -94 -306 -7 -34 -94 -144
-112 -143 -7 1 -12 -2 -9 -6 7 -12 -57 -67 -110 -93 -83 -40 -144 -56 -266
-66 -188 -16 -275 -61 -306 -157 -14 -46 -20 -54 -41 -54 -33 0 -291 49 -317
61 -25 10 -130 29 -164 29 -21 0 -23 -2 -11 -10 8 -5 25 -10 38 -10 12 0 30
-4 40 -10 9 -5 80 -21 157 -35 221 -40 275 -55 275 -74 -1 -42 -12 -45 -127
-33 -199 22 -253 25 -253 15 0 -5 62 -14 138 -21 228 -21 230 -22 225 -43 -3
-10 -10 -16 -16 -12 -5 3 -7 1 -3 -5 3 -6 1 -23 -5 -39 -6 -15 -17 -52 -25
-82 -8 -30 -29 -85 -46 -123 -28 -60 -33 -65 -45 -50 -13 15 -13 14 -3 -5 9
-20 11 -93 2 -93 -23 0 -173 100 -166 111 3 5 -2 6 -10 3 -22 -9 -210 181
-202 203 4 10 4 14 0 10 -4 -4 -13 -2 -21 5 -21 17 -5 -22 20 -49 11 -13 18
-25 16 -28 -3 -2 -36 36 -74 86 -44 58 -72 86 -78 80 -6 -6 2 -25 24 -53 49
-64 141 -156 133 -133 -4 11 11 0 34 -25 40 -44 54 -69 30 -54 -7 4 -8 3 -4
-5 4 -6 11 -9 16 -6 12 7 50 -25 50 -42 0 -7 5 -13 10 -13 6 0 10 -6 10 -13 0
-8 9 -22 20 -32 11 -10 18 -21 15 -23 -3 -3 5 -16 17 -29 19 -21 30 -23 107
-23 l86 0 0 66 c0 53 4 68 19 79 10 8 23 12 28 9 5 -3 14 -1 21 4 28 23 145
64 178 63 29 -1 38 3 47 24 7 14 12 27 12 28 0 8 -41 4 -45 -4 -3 -5 1 -6 9
-3 9 3 16 1 16 -5 0 -6 -16 -9 -39 -7 -21 2 -63 -5 -95 -14 -62 -20 -70 -18
-28 4 15 8 21 15 14 16 -7 0 -26 -13 -44 -30 -17 -16 -35 -30 -39 -30 -10 0
11 61 40 119 25 49 83 80 148 79 53 -1 68 -17 66 -71 l-2 -42 11 41 c8 32 7
48 -4 70 -12 27 -17 29 -68 28 -80 -2 -115 -8 -115 -21 0 -6 -3 -14 -7 -18 -8
-9 -4 27 17 136 21 111 23 117 48 131 20 10 21 10 9 -5 -11 -13 -6 -12 27 4
22 10 46 19 54 19 7 0 22 6 32 14 11 8 35 12 59 10 35 -4 38 -3 17 6 -13 6
-55 8 -95 6 -62 -4 -68 -2 -46 9 45 23 167 45 248 45 115 0 235 44 403 147 31
19 63 35 70 37 8 1 25 8 39 16 14 7 27 12 30 11 13 -5 80 33 72 41 -6 6 -27 1
-53 -12 -43 -21 -44 -21 -19 0 l25 20 -28 -10 c-16 -6 -49 -22 -73 -36 -49
-29 -53 -24 -25 22 10 17 31 82 46 144 25 99 33 118 66 154 22 22 39 48 39 56
0 8 14 -9 30 -39 38 -69 76 -118 100 -131 11 -6 -3 21 -35 66 -71 98 -90 161
-82 268 4 50 15 95 28 124 20 41 23 43 33 24 8 -16 10 1 8 75 -2 52 0 99 5
104 6 6 24 4 46 -6 76 -31 183 -13 232 40 72 79 135 175 134 205 0 8 -9 -2
-19 -22 -24 -45 -43 -59 -35 -26 2 12 9 43 15 68 6 25 12 97 14 160 2 63 2 95
0 70 -23 -268 -72 -418 -148 -454 -48 -23 -159 -21 -213 4 -63 28 -85 69 -79
150 3 36 9 155 15 265 5 110 15 218 21 240 14 49 82 121 128 136 82 27 177 6
250 -56 67 -56 74 -92 97 -498 8 -148 17 -272 19 -276 2 -3 5 -36 7 -71 2 -64
20 -120 39 -120 14 0 12 11 -4 29 -8 9 -18 47 -22 85 l-7 68 27 -17 c15 -10
29 -15 33 -12 3 4 25 -5 48 -18 50 -30 75 -31 132 -8 55 23 57 39 3 34 -27 -3
54 57 82 61 16 3 28 3 28 1 0 -12 -28 -53 -62 -92 -21 -24 -38 -53 -38 -63 0
-17 2 -18 15 -5 8 9 18 17 22 19 11 4 37 49 93 163 28 55 68 123 90 150 22 28
57 76 79 107 88 130 195 238 276 280 110 56 213 39 319 -55 39 -35 49 -50 57
-90 10 -58 2 -99 -48 -252 -48 -145 -80 -215 -72 -159 0 4 -5 10 -12 15 -7 4
-14 15 -15 24 -1 9 -4 18 -6 19 -60 43 -63 44 -124 37 -33 -4 -71 -15 -84 -25
-19 -14 -20 -16 -5 -10 45 18 119 15 152 -5 37 -23 67 -69 39 -58 -11 4 -15 3
-11 -4 4 -6 13 -8 21 -5 30 12 38 -38 21 -122 -9 -42 -21 -113 -26 -157 -9
-73 -13 -83 -45 -112 -41 -38 -81 -42 -163 -18 -63 19 -103 58 -142 140 -37
76 -50 130 -52 215 l-2 65 -10 -54 c-22 -115 54 -316 140 -373 l26 -16 -35 -7
c-38 -7 -94 -12 -172 -14 -84 -2 -38 -22 51 -23 59 0 92 5 125 20 38 16 52 18
94 9 67 -14 100 -4 151 47 33 33 46 40 59 33 22 -12 188 -10 322 4 133 14 161
8 206 -41 44 -49 61 -83 70 -140 l7 -45 -30 34 c-16 18 -34 31 -38 28 -5 -3
-15 -1 -23 5 -12 8 -12 9 3 4 24 -8 21 1 -4 15 -17 9 -20 8 -14 -2 6 -9 3 -10
-11 -4 -59 24 -58 11 2 -18 39 -19 75 -40 79 -47 6 -9 2 -9 -16 0 -24 11 -24
11 1 -9 13 -11 29 -19 34 -18 5 1 12 -6 14 -17 7 -34 -21 -107 -68 -180 -26
-39 -50 -81 -54 -93 -4 -13 -12 -23 -18 -23 -5 0 -7 7 -4 16 4 10 2 13 -6 8
-7 -5 -9 -2 -5 8 3 9 0 21 -6 27 -14 14 -30 14 -21 -1 4 -7 3 -8 -5 -4 -6 4
-9 11 -6 16 3 5 -3 14 -14 19 -29 16 -39 13 -16 -5 19 -16 19 -16 -5 -8 -34
12 -98 9 -143 -5 -43 -15 -99 -95 -123 -179 -20 -67 -15 -80 30 -80 74 0 121
-14 165 -51 25 -20 51 -41 59 -47 12 -8 12 -17 1 -53 -11 -36 -20 -47 -53 -62
-60 -27 -148 -25 -213 6 -161 74 -174 337 -28 574 43 69 59 104 32 70 -59 -75
-58 -75 -68 -56 -6 10 -15 15 -20 11 -5 -3 -9 -2 -8 3 1 4 -1 15 -4 23 -3 8
-8 29 -11 45 -2 17 -3 2 -1 -33 2 -35 10 -73 17 -84 13 -19 11 -31 -13 -102
-26 -74 -31 -81 -56 -84 -73 -6 -190 91 -213 179 -15 53 -20 46 -11 -13 13
-83 82 -157 174 -187 51 -17 63 -41 71 -136 13 -162 101 -265 229 -265 30 0
31 -10 3 -70 -22 -48 -184 -65 -280 -30 -79 30 -132 85 -250 260 -74 109 -182
227 -273 297 -71 54 -73 55 -215 84 -162 33 -245 38 -135 9 38 -10 72 -21 75
-25 4 -4 -4 -4 -17 0 -16 5 -21 4 -17 -4 4 -6 15 -11 24 -11 9 0 62 -20 117
-45 90 -41 151 -62 195 -68 26 -3 79 -49 120 -105 35 -47 38 -53 18 -46 -21 6
-22 6 -8 -12 14 -17 13 -18 -1 -7 -8 7 -33 20 -54 29 -37 15 -38 15 -25 -2 14
-16 13 -16 -17 0 -39 20 -83 38 -101 42 -7 1 -43 14 -79 29 -36 14 -68 24 -70
21 -3 -3 -28 8 -57 24 -64 36 -166 67 -248 76 -34 4 -61 4 -58 1 3 -3 64 -24
135 -47 72 -23 147 -51 167 -61 40 -21 73 -25 63 -9 -3 6 -3 10 2 10 20 -1
221 -106 345 -182 115 -70 144 -93 188 -148 55 -69 103 -107 174 -136 41 -17
44 -21 39 -50 -5 -32 10 -54 23 -33 5 8 3 9 -6 4 -10 -6 -11 -4 -6 11 5 10 9
25 9 32 0 6 10 12 21 12 17 0 18 -2 6 -10 -10 -6 -11 -10 -2 -10 6 0 12 -11
12 -25 0 -14 -5 -25 -11 -25 -6 0 -9 -6 -6 -14 3 -8 2 -16 -2 -18 -5 -2 -11
-14 -15 -28 -6 -20 -5 -22 4 -10 9 12 10 9 5 -14 -9 -43 -40 -76 -129 -140
-67 -47 -75 -56 -53 -56 14 0 28 4 31 9 4 5 39 26 79 45 80 40 150 93 201 154
l33 40 6 -89 c7 -96 27 -159 50 -159 12 0 10 12 -9 59 -34 83 -40 161 -20 241
24 96 72 189 104 202 93 37 96 41 144 231 38 148 73 247 88 247 4 0 22 -10 41
-23 63 -43 98 -116 103 -221 3 -58 -6 -97 -39 -176 -13 -30 -38 -93 -56 -140
-19 -47 -35 -87 -36 -89 -1 -2 -12 7 -24 20 -11 13 -18 18 -14 12 8 -16 -11
-17 -21 -2 -7 12 -60 5 -99 -13 -33 -15 -85 -152 -73 -190 3 -7 13 21 23 62
11 46 27 83 41 97 24 24 54 31 54 13 0 -5 5 -10 11 -10 5 0 7 5 4 10 -9 14 42
13 68 -2 22 -12 21 -12 -8 -19 l-30 -7 29 -1 c27 -1 28 -3 22 -38 -3 -21 -8
-72 -12 -114 l-7 -75 -30 27 c-30 28 -79 44 -85 28 -5 -14 -32 -11 -32 4 -1 7
-6 5 -14 -6 -14 -18 -15 -18 -25 0 -6 10 -11 13 -11 7 0 -21 25 -33 88 -43 87
-14 131 -48 100 -79 -9 -9 -8 -12 4 -12 23 0 28 21 28 114 0 105 28 215 92
371 28 66 55 143 61 172 14 68 -1 180 -35 249 l-24 50 55 22 c38 15 58 19 66
11 5 -5 9 -41 9 -79 -1 -38 2 -67 7 -64 5 3 10 31 10 62 1 56 2 56 8 15 9 -51
-5 -198 -25 -277 -17 -66 -69 -200 -89 -232 -8 -13 -10 -26 -4 -35 6 -10 9
-10 9 -1 0 6 6 12 14 12 8 0 41 25 74 55 33 30 63 51 67 47 5 -4 5 -2 2 4 -4
6 0 34 8 63 9 28 18 68 21 88 2 21 7 54 10 73 5 26 3 32 -5 24 -6 -5 -13 -32
-16 -60 -9 -92 -32 -149 -75 -188 -36 -33 -60 -45 -60 -31 0 3 8 22 19 43 52
102 90 403 62 483 -10 29 -10 35 5 44 9 6 32 23 50 38 19 16 38 25 45 21 7 -4
9 -3 6 3 -8 12 37 56 47 46 4 -4 4 0 0 10 -3 9 -2 17 3 17 21 0 54 -181 60
-323 4 -127 3 -148 -16 -201 -25 -70 -26 -83 -7 -83 8 0 12 5 10 12 -3 6 3 28
11 49 9 22 18 75 21 119 4 76 0 129 -27 382 l-11 110 26 45 c15 25 36 64 47
88 20 42 20 42 44 25 20 -15 27 -39 50 -163 15 -80 28 -152 30 -160 1 -8 3 38
4 103 0 64 -3 125 -8 135 -14 28 -29 66 -37 92 -4 14 -14 32 -23 40 -25 22
-43 93 -32 123 11 29 -2 47 -35 47 -13 0 -26 5 -29 10 -3 6 -3 10 2 10 4 0 8
31 8 69 0 39 -4 67 -9 63 -5 -3 -7 5 -3 17 8 31 -17 84 -47 100 -20 11 -23 18
-16 32 6 10 10 31 10 46 0 16 5 34 12 41 8 8 11 44 9 109 -2 54 -2 109 -1 123
7 93 1 252 -10 265 -6 8 -9 19 -5 25 4 6 1 18 -7 27 -11 14 -11 16 2 8 12 -7
13 -6 3 6 -13 16 -15 44 -9 116 4 38 20 97 62 225 9 26 13 51 10 57 -3 5 -2
11 4 13 12 4 17 118 6 137 -6 10 -5 12 2 7 17 -10 14 15 -3 38 -11 14 -12 23
-4 33 9 10 8 13 -5 13 -17 0 -18 4 -18 68 1 24 -3 40 -8 37 -6 -4 -10 8 -10
27 0 35 -28 118 -40 118 -4 0 -11 7 -14 16 -3 8 -2 13 2 10 4 -3 13 4 20 14 8
14 8 21 -1 28 -17 14 -59 26 -79 23 -9 -1 -20 3 -24 10 -4 7 -3 9 3 6 6 -4 13
-1 16 7 3 7 19 16 36 19 18 4 42 18 55 32 13 14 26 25 30 25 4 0 14 7 22 15 9
8 12 15 8 15 -5 0 18 26 49 58 119 118 107 94 107 218 l0 111 -197 0 c-130 -1
-216 4 -250 12 -58 14 -70 37 -25 47 39 9 94 24 117 33 35 14 114 31 145 31
16 0 31 4 35 10 3 5 18 9 33 10 15 0 53 3 85 6 52 5 57 8 57 30 0 13 -4 24 -8
24 -7 0 -51 34 -97 75 -12 11 -28 21 -34 23 -14 3 -134 91 -172 126 -14 13
-35 26 -46 30 -12 4 -24 13 -27 21 -3 8 -15 15 -26 15 -11 0 -23 6 -26 13 -3
8 -10 14 -17 14 -7 0 -41 17 -75 37 -35 20 -71 36 -79 36 -10 0 -13 6 -9 16 3
9 6 20 6 24 0 29 149 135 273 195 53 26 97 53 97 60 0 18 -128 55 -275 79
-152 25 -466 37 -473 17 -4 -11 -52 -16 -52 -5 0 3 6 18 13 32 7 15 33 66 56
113 24 48 54 98 67 113 14 14 22 31 19 36 -3 6 -1 10 5 10 6 0 8 5 5 10 -3 6
-1 10 5 10 6 0 8 5 5 10 -4 7 -13 7 -26 0 -10 -6 -19 -7 -19 -3 0 4 -5 0 -11
-9 -5 -10 -16 -18 -24 -18 -7 0 -20 -6 -27 -13 -29 -28 -274 -157 -300 -157
-9 0 -30 -11 -46 -25 -32 -27 -72 -33 -72 -11 0 7 6 19 14 25 7 6 21 33 31 59
10 26 34 81 52 122 19 41 38 84 43 95 9 22 19 85 13 85 -9 0 -150 -99 -162
-114 -7 -9 -19 -16 -27 -16 -7 0 -19 -6 -26 -13 -20 -19 -178 -77 -210 -77
-18 0 -18 20 -1 41 6 8 13 23 17 34 3 11 20 36 36 55 36 42 36 43 81 102 20
26 40 44 44 40 5 -4 5 -2 1 5 -4 7 12 30 36 54 24 24 42 46 40 51 -1 4 3 8 9
8 11 0 76 61 71 67 -5 7 90 83 104 83 8 0 12 4 9 10 -3 6 1 7 10 4 11 -5 18 0
22 15 3 11 8 19 12 17 4 -3 7 4 7 14 0 26 -44 32 -211 31 -260 -3 -657 -62
-924 -138 -72 -21 -123 -49 -185 -103 -16 -14 -32 -24 -37 -23 -5 2 -9 -1 -9
-7 0 -5 -19 -28 -42 -52 l-43 -43 -6 70 c-6 72 -18 118 -47 170 -18 33 -17 32
-68 92 -19 23 -36 45 -37 49 -1 4 -62 66 -136 138 -73 72 -143 141 -155 154
-91 100 -155 162 -159 155z m342 -2313 c78 -30 131 -63 131 -80 0 -5 -32 -64
-72 -132 -39 -68 -95 -172 -124 -233 -48 -100 -55 -110 -81 -112 -15 -1 -36 6
-45 14 -10 9 -18 11 -18 5 0 -6 16 -23 35 -39 22 -18 31 -33 26 -41 -5 -9 -20
0 -49 32 -23 25 -42 43 -42 39 0 -13 53 -83 63 -83 6 0 8 -2 5 -5 -3 -4 -17
-3 -31 0 -18 5 -30 19 -41 46 -16 40 -32 55 -21 19 13 -42 -18 -28 -251 106
-22 13 -62 27 -87 30 -44 6 -47 5 -47 -15 0 -63 85 -143 104 -98 3 8 12 4 28
-14 13 -14 40 -36 60 -48 20 -12 49 -36 64 -54 17 -20 37 -32 53 -33 14 0 42
-2 61 -3 l35 -2 -47 -15 c-26 -8 -50 -19 -54 -26 -5 -7 -3 -8 7 -3 7 5 45 17
84 26 50 12 61 18 40 19 l-30 2 29 8 c16 5 44 25 63 45 19 20 37 34 41 31 3
-4 -6 -19 -21 -34 -21 -21 -28 -42 -33 -87 -4 -33 -13 -75 -20 -94 -20 -49 -7
-58 60 -39 59 16 75 12 144 -40 17 -13 32 -20 32 -14 0 6 -4 14 -10 17 -16 10
-12 41 7 56 15 12 16 12 10 -3 -3 -10 -3 -18 2 -18 5 0 11 14 15 31 5 27 8 30
21 19 13 -10 15 -9 15 9 0 27 17 61 30 61 6 0 10 -8 10 -17 0 -15 2 -15 9 -4
8 13 12 13 27 0 16 -13 16 -12 5 9 -7 12 -16 20 -21 17 -6 -3 -8 0 -5 7 6 17
-31 78 -47 78 -21 0 -32 -12 -68 -73 -19 -32 -47 -69 -61 -83 l-26 -25 5 28 5
28 -36 -32 c-33 -29 -100 -53 -113 -40 -3 3 2 22 10 42 9 21 16 58 16 84 0 35
5 49 20 59 17 10 20 10 21 -5 0 -13 3 -11 10 6 6 17 6 27 -1 31 -15 9 34 60
57 60 11 0 70 41 133 91 102 81 116 96 126 134 6 24 9 55 7 69 -3 16 3 39 18
62 l23 37 28 -34 c16 -19 48 -67 72 -107 l43 -72 -54 -136 c-48 -121 -54 -146
-60 -232 -6 -106 -20 -141 -74 -187 -44 -36 -107 -34 -233 9 -56 19 -122 40
-148 46 -38 10 -71 33 -160 112 -61 55 -157 133 -213 174 l-102 74 -23 71
c-12 39 -24 97 -27 129 -5 55 -4 62 30 107 19 26 51 63 71 82 33 32 38 33 91
29 52 -4 55 -4 34 9 -24 14 -24 14 -1 8 12 -3 31 -8 43 -11 44 -12 98 -11 103
3 3 8 10 12 14 9 5 -3 21 7 37 22 16 14 35 27 43 28 8 2 27 15 43 30 16 15 29
24 29 19 0 -4 8 -1 18 7 14 13 31 22 50 27 1 1 38 -13 81 -29z m1906 -138 c-3
-3 -11 0 -18 7 -9 10 -8 11 6 5 10 -3 15 -9 12 -12z m-1725 -152 c7 -85 3 -95
-56 -134 -31 -21 -76 -56 -100 -78 -27 -25 -49 -38 -59 -34 -13 5 -12 13 10
55 30 61 38 66 60 41 10 -11 22 -20 27 -20 4 0 -1 9 -12 20 -27 27 -25 39 9
80 27 33 31 34 53 21 l23 -14 -20 22 -20 23 35 28 c38 31 47 29 50 -10z m2001
-57 c13 -16 12 -17 -3 -4 -10 7 -18 15 -18 17 0 8 8 3 21 -13z m-2538 -263
c12 0 47 -40 47 -53 0 -3 -9 -7 -20 -10 -14 -4 -31 7 -60 39 -48 52 -50 60
-10 39 16 -8 35 -15 43 -15z m2648 -23 c-10 -9 -11 -8 -5 6 3 10 9 15 12 12 3
-3 0 -11 -7 -18z m-2571 -17 c6 -11 7 -20 2 -20 -10 0 -32 21 -32 32 0 16 19
8 30 -12z m2593 5 c-3 -9 -8 -14 -10 -11 -3 3 -2 9 2 15 9 16 15 13 8 -4z
m-2553 -15 c0 -5 -5 -10 -11 -10 -5 0 -7 5 -4 10 3 6 8 10 11 10 2 0 4 -4 4
-10z m384 -36 c6 -15 -7 -49 -21 -56 -5 -1 -21 -20 -36 -41 -29 -38 -73 -67
-103 -67 -15 0 -14 4 8 28 13 15 35 43 48 62 30 45 72 89 86 89 7 1 15 -6 18
-15z m-272 -229 c130 -36 254 -82 300 -112 24 -15 44 -28 46 -29 1 0 0 -8 -4
-17 -4 -11 -15 -14 -41 -11 -20 3 -40 7 -44 10 -5 3 -9 1 -9 -3 0 -5 19 -15
43 -23 39 -14 42 -17 39 -50 l-2 -35 14 30 c7 17 23 36 35 43 12 7 19 17 16
22 -3 5 0 12 6 16 8 4 9 3 5 -4 -4 -7 -2 -12 3 -12 14 0 14 17 1 25 -5 3 -21
-6 -35 -21 -22 -24 -25 -25 -25 -7 0 21 57 113 70 113 4 0 11 -48 14 -107 4
-60 12 -145 18 -191 5 -46 8 -86 5 -88 -9 -9 -66 26 -82 49 -8 13 -19 45 -24
71 -12 64 -25 73 -15 11 5 -40 28 -104 51 -146 6 -10 -46 -29 -80 -29 -27 -1
-29 -2 -14 -11 17 -10 17 -12 1 -30 -19 -21 -44 -116 -44 -171 0 -44 -17 -49
-66 -19 -54 33 -87 87 -110 180 -12 47 -20 88 -18 89 1 2 20 -8 41 -22 21 -14
51 -26 68 -26 29 1 29 1 -10 15 -58 20 -146 119 -181 203 -26 60 -29 79 -29
180 0 61 -3 112 -7 112 -5 0 -8 -26 -8 -57 -1 -55 -2 -57 -16 -38 -28 35 -64
119 -64 149 l0 30 34 -33 c26 -25 55 -39 118 -56z m1709 -72 c-12 -20 -14 -14
-5 12 4 9 9 14 11 11 3 -2 0 -13 -6 -23z m-785 -101 c-18 -16 -18 -16 -6 6 6
13 14 21 18 18 3 -4 -2 -14 -12 -24z m164 -2 c-8 -5 -19 -10 -25 -10 -5 0 -3
5 5 10 8 5 20 10 25 10 6 0 3 -5 -5 -10z m-337 -97 c10 -18 24 -36 34 -41 15
-9 14 -12 -4 -38 -10 -16 -39 -63 -62 -106 l-43 -76 -44 33 c-24 18 -57 36
-74 40 -35 8 -35 16 7 99 23 45 118 149 146 159 6 2 15 -6 18 -17 3 -12 13
-36 22 -53z m-1607 -88 c-23 -36 -20 -40 13 -13 15 13 27 26 24 30 -2 4 2 5 9
2 7 -3 31 -28 53 -57 22 -28 34 -47 26 -43 -10 7 -12 2 -6 -25 11 -50 31 -84
60 -103 25 -16 27 -16 56 9 34 28 49 25 49 -9 0 -16 -11 -29 -34 -41 l-34 -19
-42 40 c-57 52 -58 54 -81 92 -28 48 -94 74 -188 76 -42 0 -87 -3 -100 -8 -22
-8 -23 -6 -17 17 20 80 15 77 127 77 l101 0 -16 -25z m2809 6 c3 -5 2 -12 -3
-15 -5 -3 -9 1 -9 9 0 17 3 19 12 6z m-2800 -105 c74 -49 86 -107 33 -153 -18
-16 -62 -55 -98 -88 -36 -33 -86 -76 -110 -96 -25 -21 -42 -40 -38 -44 3 -4
51 31 106 77 55 45 125 96 156 111 50 26 60 27 91 17 48 -16 87 -57 108 -116
l18 -49 -28 -20 c-15 -10 -55 -45 -88 -76 -33 -31 -85 -75 -115 -98 -76 -57
-82 -62 -76 -68 2 -3 24 10 48 27 87 65 272 180 288 180 23 0 59 -41 70 -81
27 -92 -11 -170 -121 -250 -68 -50 -72 -66 -4 -19 25 17 72 47 105 65 l58 33
7 -44 c10 -68 -11 -88 -33 -31 -11 28 -14 30 -23 15 -7 -13 -5 -26 6 -48 15
-30 15 -30 -17 -50 -18 -11 -62 -29 -98 -41 -36 -12 -95 -35 -132 -51 -56 -26
-72 -29 -104 -21 -32 7 -39 14 -47 43 -7 26 -5 35 5 39 18 6 159 143 153 149
-3 3 -39 -27 -80 -68 -69 -67 -78 -72 -107 -66 -57 11 -79 32 -76 73 3 42 -14
58 -75 67 -58 10 -81 27 -95 72 -6 22 -16 55 -22 75 -9 30 -22 44 -75 75 -89
52 -102 67 -84 100 7 14 44 47 81 72 70 49 86 71 22 31 -23 -14 -34 -17 -28
-8 42 69 154 228 181 257 l33 35 91 -6 c56 -4 100 -12 114 -21z m192 -37 c39
-23 41 -26 22 -37 -11 -7 -17 -17 -14 -22 3 -5 1 -11 -4 -14 -15 -10 -59 56
-59 88 0 15 3 24 7 19 3 -5 25 -21 48 -34z m3110 -4 c0 -8 -4 -12 -9 -9 -5 3
-6 10 -3 15 9 13 12 11 12 -6z m-217 -111 c0 -8 -19 -13 -24 -6 -3 5 1 9 9 9
8 0 15 -2 15 -3z m-2694 -175 c28 -30 29 -33 26 -124 -1 -52 -7 -104 -12 -117
-8 -18 -9 -13 -5 23 4 29 0 62 -9 90 -9 24 -16 62 -16 83 0 22 -7 47 -17 58
-28 31 2 20 33 -13z m2820 -231 c19 -23 19 -23 -2 -5 -11 9 -24 14 -29 10 -4
-5 -5 -2 -1 5 9 16 10 16 32 -10z m-1226 -8 c-8 -5 -19 -10 -25 -10 -5 0 -3 5
5 10 8 5 20 10 25 10 6 0 3 -5 -5 -10z m897 -162 c-3 -8 -6 -5 -6 6 -1 11 2
17 5 13 3 -3 4 -12 1 -19z m-248 -12 c15 -8 34 -23 42 -33 13 -17 13 -17 -6
-2 -11 9 -33 24 -50 32 -16 9 -26 16 -22 17 4 0 20 -6 36 -14z m-794 -156 c-3
-5 -12 -10 -18 -10 -7 0 -6 4 3 10 19 12 23 12 15 0z m1232 -192 c-3 -8 -6 -5
-6 6 -1 11 2 17 5 13 3 -3 4 -12 1 -19z m-78 -602 c12 -14 71 -39 71 -31 0 3
-17 13 -37 24 -34 18 -36 20 -13 20 40 1 109 -36 121 -63 10 -20 9 -34 -4 -68
-9 -24 -26 -80 -38 -126 l-21 -83 -23 31 c-48 65 -137 110 -176 90 -10 -6 -24
-10 -31 -9 -7 0 -4 5 7 10 18 8 17 8 -5 6 -14 -1 -24 -8 -22 -15 1 -6 -5 -12
-13 -12 -18 0 -13 29 18 100 28 64 65 110 101 126 40 17 51 17 65 0z"/>
<path d="M2016 3731 c-21 -43 -36 -84 -33 -92 3 -10 7 -9 11 6 4 11 20 51 37
89 16 38 28 71 26 72 -2 2 -20 -32 -41 -75z"/>
<path d="M1891 3734 c0 -27 4 -58 9 -69 6 -13 7 3 3 45 -7 79 -13 91 -12 24z"/>
<path d="M2465 3680 c-44 -27 -94 -55 -110 -63 -17 -8 -66 -49 -110 -92 -44
-43 -57 -58 -30 -33 49 43 188 140 295 205 30 18 51 33 45 33 -5 0 -46 -22
-90 -50z"/>
<path d="M1765 3662 c21 -19 85 -53 85 -45 0 5 -21 19 -47 32 -27 12 -43 19
-38 13z"/>
<path d="M2275 3470 c-10 -11 -16 -22 -13 -25 3 -3 11 1 18 10 7 8 19 15 27
15 8 0 11 5 8 10 -9 15 -20 12 -40 -10z"/>
<path d="M2366 3291 c-4 -7 -5 -15 -2 -18 9 -9 19 4 14 18 -4 11 -6 11 -12 0z"/>
<path d="M2404 3270 c3 -16 -2 -39 -14 -58 -22 -36 -90 -75 -117 -66 -17 5
-17 5 0 -6 27 -18 74 -2 101 33 40 54 47 73 36 99 -10 23 -10 23 -6 -2z"/>
<path d="M2345 3226 c-15 -23 -28 -31 -50 -31 -16 -1 -30 -6 -33 -13 -2 -7 3
-12 12 -12 29 0 63 22 80 52 24 40 16 44 -9 4z"/>
<path d="M2150 3195 c0 -8 42 -44 53 -45 17 0 5 17 -23 33 -16 10 -30 15 -30
12z"/>
<path d="M2383 3160 c-18 -16 -33 -32 -33 -35 0 -5 50 1 55 7 4 5 16 58 13 58
-2 0 -18 -14 -35 -30z"/>
<path d="M2277 3693 c-12 -11 -8 -23 8 -23 8 0 15 7 15 15 0 16 -12 20 -23 8z"/>
<path d="M1055 2676 c11 -9 31 -25 44 -36 13 -12 30 -19 38 -16 8 3 11 2 8 -4
-7 -12 33 -33 67 -35 35 -2 28 8 -30 42 -42 25 -62 34 -127 57 l-20 8 20 -16z
m150 -84 c-3 -3 -11 0 -18 7 -9 10 -8 11 6 5 10 -3 15 -9 12 -12z"/>
<path d="M1329 2457 c7 -10 10 -17 5 -17 -10 0 35 -47 68 -72 25 -17 27 -17
21 -2 -5 13 -3 15 8 9 8 -5 5 1 -5 13 -21 24 -32 29 -20 10 4 -7 3 -8 -4 -4
-6 4 -8 14 -5 23 5 13 2 15 -11 10 -10 -4 -15 -3 -11 3 3 5 -9 17 -27 26 -30
16 -32 16 -19 1z"/>
<path d="M906 2350 c-8 -20 -17 -54 -20 -76 l-5 -39 12 38 c7 21 16 35 20 31
6 -6 15 12 31 62 11 37 -22 23 -38 -16z m11 -32 c-3 -8 -6 -5 -6 6 -1 11 2 17
5 13 3 -3 4 -12 1 -19z"/>
<path d="M1465 2240 c3 -5 8 -10 11 -10 2 0 4 5 4 10 0 6 -5 10 -11 10 -5 0
-7 -4 -4 -10z"/>
<path d="M1486 2231 c-10 -29 30 -121 51 -121 17 0 12 20 -21 95 -21 46 -23
48 -30 26z"/>
<path d="M1010 2191 c-30 -9 -64 -23 -75 -30 -20 -12 -20 -12 0 -6 11 4 36 11
55 16 45 10 110 38 90 38 -8 0 -40 -8 -70 -18z"/>
<path d="M1092 2126 c-22 -24 -45 -54 -52 -67 -11 -21 -9 -20 17 6 33 33 88
105 80 105 -2 0 -23 -20 -45 -44z"/>
<path d="M1228 2013 c-10 -2 -18 -9 -18 -14 0 -6 10 -5 23 2 37 20 36 23 -5
12z"/>
<path d="M1170 1989 c0 -5 5 -7 10 -4 6 3 10 8 10 11 0 2 -4 4 -10 4 -5 0 -10
-5 -10 -11z"/>
<path d="M1343 1894 c-35 -15 -42 -24 -19 -24 8 0 24 9 37 20 28 23 25 23 -18
4z"/>
<path d="M1315 1845 l-50 -13 40 -1 c22 0 54 6 70 14 39 18 9 18 -60 0z"/>
<path d="M867 3194 c-3 -3 -3 -12 0 -20 3 -8 -5 -18 -21 -25 -14 -7 -28 -19
-31 -28 -9 -25 -63 -81 -79 -81 -8 0 -18 5 -21 10 -12 19 -25 -1 -25 -38 0
-20 -5 -53 -10 -74 -11 -40 -31 -44 -54 -12 -8 10 -17 17 -20 14 -3 -3 -6 -44
-7 -90 -1 -49 -7 -96 -15 -112 -16 -32 -17 -38 -5 -38 5 0 13 12 18 27 9 27
10 26 21 -20 15 -59 27 -61 19 -4 -3 24 -3 57 2 73 l7 29 18 -28 c27 -41 38
-33 31 21 -6 44 -5 46 9 28 15 -19 16 -19 16 8 0 15 4 25 10 21 14 -9 13 18
-2 51 -10 22 -10 28 0 32 7 2 9 9 5 15 -4 7 7 1 24 -13 30 -24 30 -26 17 -59
-18 -42 -18 -41 6 -41 14 0 20 7 21 23 1 20 2 20 12 -5 6 -16 14 -28 19 -28
10 0 10 -1 -3 60 -8 38 -15 50 -27 48 -10 -2 -17 5 -19 17 -1 16 -1 16 3 2 7
-22 24 -12 24 15 0 15 3 18 13 11 6 -6 20 -9 30 -8 13 2 17 -2 14 -13 -2 -9
-9 -16 -15 -14 -15 3 -15 -10 0 -43 16 -35 28 -31 28 10 0 41 17 47 26 9 4
-16 12 -24 23 -22 13 3 16 16 16 62 0 72 -7 86 -33 63 -16 -14 -19 -15 -19 -2
0 8 3 13 5 10 10 -10 32 18 32 41 0 36 -30 104 -47 104 -8 0 -11 5 -8 10 7 11
2 14 -8 4z"/>
<path d="M2481 2610 c-30 -11 -57 -23 -60 -26 -3 -4 2 -4 11 -1 10 3 41 9 70
11 l53 5 -53 -10 c-30 -6 -52 -12 -50 -14 2 -2 44 0 93 5 50 4 93 6 98 3 4 -2
7 0 7 5 0 7 -32 19 -100 37 -8 2 -39 -5 -69 -15z"/>
<path d="M3730 2336 c-61 -41 -112 -93 -138 -143 -23 -43 -11 -34 32 24 46 64
124 126 169 137 15 4 25 11 22 16 -9 15 -15 13 -85 -34z"/>
<path d="M2425 2315 c-25 -12 -26 -14 -5 -9 22 5 20 3 -9 -17 -19 -13 -37 -31
-39 -39 -5 -13 -3 -13 11 -1 9 7 23 11 32 7 8 -3 14 0 12 6 -4 22 62 32 132
20 50 -8 71 -17 89 -37 20 -24 31 -24 14 1 -14 21 -112 84 -129 83 -16 0 -15
-2 2 -9 14 -6 5 -9 -35 -9 -40 0 -49 3 -35 9 13 6 15 9 5 9 -8 0 -28 -6 -45
-14z"/>
<path d="M3825 2310 c-22 -4 -30 -8 -18 -9 38 -2 187 -52 206 -69 9 -8 20 -13
23 -9 3 3 -4 10 -15 17 -12 6 -19 15 -16 20 3 6 -11 18 -32 27 -21 10 -40 20
-43 23 -8 8 -62 8 -105 0z"/>
<path d="M3535 2289 c-4 -6 -5 -12 -2 -15 2 -3 7 2 10 11 7 17 1 20 -8 4z"/>
<path d="M2500 2260 l-45 -7 45 -1 c25 0 56 4 70 8 l25 8 -25 0 c-14 -1 -45
-4 -70 -8z"/>
<path d="M2355 2188 c-3 -18 -5 -59 -3 -92 l3 -58 115 0 c63 0 123 -5 133 -10
25 -13 44 5 51 50 15 95 17 117 7 103 -5 -8 -13 -41 -16 -73 -8 -64 -17 -70
-58 -38 -14 11 -27 16 -29 11 -1 -5 -19 -6 -38 -3 -33 5 -34 6 -10 13 23 6 22
7 -8 8 -18 1 -31 -3 -28 -7 3 -5 -8 -9 -25 -10 -18 0 -27 3 -23 10 4 5 -4 5
-17 -2 -31 -16 -39 -25 -15 -16 16 5 17 4 6 -9 -7 -8 -19 -15 -28 -15 -13 0
-14 13 -8 85 6 86 2 112 -9 53z"/>
<path d="M3491 2194 c0 -11 3 -14 6 -6 3 7 2 16 -1 19 -3 4 -6 -2 -5 -13z"/>
<path d="M3476 2127 c-4 -24 -2 -66 5 -93 6 -27 11 -71 11 -99 l0 -50 9 40
c19 78 38 150 45 169 5 13 4 17 -4 13 -6 -4 -14 -21 -17 -38 l-7 -31 -15 29
c-9 15 -15 45 -14 66 2 50 -5 47 -13 -6z"/>
<path d="M2790 2105 c0 -8 2 -15 4 -15 2 0 6 7 10 15 3 8 1 15 -4 15 -6 0 -10
-7 -10 -15z"/>
<path d="M3796 1926 c6 -16 53 -50 59 -44 2 2 -11 16 -30 31 -19 15 -32 21
-29 13z"/>
<path d="M3646 1875 c-9 -26 -7 -32 5 -12 6 10 9 21 6 23 -2 3 -7 -2 -11 -11z"/>
<path d="M3626 1818 c-11 -44 -6 -95 12 -110 9 -8 42 -20 72 -27 30 -7 83 -29
118 -48 66 -36 79 -33 35 9 -41 38 -102 67 -158 74 -70 9 -78 18 -70 76 7 50
2 65 -9 26z"/>
<path d="M3100 1660 c-9 -6 -11 -10 -3 -10 8 0 10 -7 6 -17 -6 -16 -5 -16 10
-5 8 8 13 20 10 28 -6 17 -4 16 -23 4z"/>
<path d="M2812 1604 c-62 -43 -250 -84 -302 -65 -18 6 -35 9 -38 6 -9 -9 66
-35 100 -35 66 0 245 61 263 91 11 18 0 19 -23 3z"/>
<path d="M3120 1603 c0 -19 101 -124 149 -155 25 -15 56 -28 70 -28 20 1 12 7
-30 24 -53 22 -79 45 -162 141 -15 17 -27 25 -27 18z"/>
<path d="M2400 1581 c0 -10 31 -31 45 -31 11 0 -5 20 -26 30 -12 7 -19 7 -19
1z"/>
<path d="M1398 1483 c7 -3 16 -2 19 1 4 3 -2 6 -13 5 -11 0 -14 -3 -6 -6z"/>
<path d="M474 1378 c-5 -7 44 -3 52 5 3 3 -7 4 -21 3 -15 0 -29 -4 -31 -8z"/>
<path d="M3940 1360 c-6 -12 -9 -24 -7 -27 3 -2 11 5 17 17 6 12 9 24 7 27 -3
2 -11 -5 -17 -17z"/>
<path d="M4126 1304 c-22 -21 -20 -27 4 -14 11 6 20 15 20 20 0 14 -6 12 -24
-6z"/>
<path d="M3642 1275 c-6 -14 -7 -25 -2 -25 9 0 25 39 18 46 -3 2 -10 -7 -16
-21z"/>
<path d="M376 1255 c-9 -26 -7 -32 5 -12 6 10 9 21 6 23 -2 3 -7 -2 -11 -11z"/>
<path d="M2451 1144 c9 -9 25 -14 35 -12 14 3 10 7 -16 16 -32 12 -34 11 -19
-4z"/>
<path d="M4927 1131 c-4 -17 -3 -21 5 -13 5 5 8 16 6 23 -3 8 -7 3 -11 -10z"/>
<path d="M2595 1130 c3 -5 17 -10 31 -10 14 0 22 4 19 10 -3 6 -17 10 -31 10
-14 0 -22 -4 -19 -10z"/>
<path d="M2480 1116 c0 -2 7 -6 15 -10 8 -3 15 -1 15 4 0 6 -7 10 -15 10 -8 0
-15 -2 -15 -4z"/>
<path d="M2724 1099 c69 -22 149 -36 126 -21 -17 11 -151 43 -172 41 -7 -1 14
-10 46 -20z"/>
<path d="M4218 1053 c7 -3 16 -2 19 1 4 3 -2 6 -13 5 -11 0 -14 -3 -6 -6z"/>
<path d="M2530 962 c0 -8 43 -32 57 -32 3 0 -4 9 -17 20 -24 21 -40 26 -40 12z"/>
<path d="M2620 914 c0 -1 8 -8 17 -15 11 -10 14 -10 9 -1 -31 51 147 -82 185
-139 50 -74 79 -185 79 -297 0 -54 -6 -122 -14 -152 -19 -74 -12 -77 11 -4 24
80 23 241 -1 354 -18 83 -20 87 -83 148 -67 65 -145 112 -182 109 -11 -1 -21
-2 -21 -3z"/>
<path d="M5072 903 c-7 -85 -147 -432 -194 -483 -10 -11 -16 -20 -13 -20 3 0
-8 -20 -25 -45 -17 -25 -34 -45 -37 -45 -4 0 -2 5 5 12 7 7 12 17 12 22 0 6
-16 -11 -35 -38 -43 -60 -48 -66 -39 -41 4 14 -1 11 -18 -9 -16 -19 -29 -26
-38 -21 -9 5 -11 4 -6 -4 4 -7 -10 -32 -34 -61 -42 -50 -45 -66 -7 -32 11 9
17 11 13 5 -4 -7 -2 -13 3 -13 6 0 11 5 11 11 0 5 4 8 9 5 5 -3 16 6 25 19 10
14 22 23 28 19 7 -4 8 -3 4 4 -4 6 9 34 27 63 19 28 37 45 39 38 2 -7 13 0 27
19 12 18 27 30 32 27 5 -4 6 0 4 8 -3 7 3 22 15 32 11 10 20 21 20 25 0 4 17
38 38 76 21 38 46 92 56 119 10 28 34 85 53 127 29 67 33 86 30 140 -2 35 -4
53 -5 41z"/>
<path d="M4445 827 c22 -19 40 -39 40 -43 0 -5 15 -28 32 -52 23 -32 32 -38
37 -26 10 25 -20 69 -71 106 -69 49 -84 55 -38 15z m97 -102 c11 -21 8 -18
-32 30 -24 29 -24 29 -2 10 13 -11 28 -29 34 -40z"/>
<path d="M2210 765 c0 -3 16 -39 35 -79 19 -41 35 -80 35 -87 0 -7 3 -10 6 -6
9 9 -38 140 -58 160 -10 10 -18 15 -18 12z"/>
<path d="M3430 760 c0 -5 5 -10 11 -10 5 0 7 5 4 10 -3 6 -8 10 -11 10 -2 0
-4 -4 -4 -10z"/>
<path d="M4776 653 c-6 -14 -5 -15 5 -6 7 7 10 15 7 18 -3 3 -9 -2 -12 -12z"/>
<path d="M1248 523 c7 -3 16 -2 19 1 4 3 -2 6 -13 5 -11 0 -14 -3 -6 -6z"/>
<path d="M1098 513 c7 -3 16 -2 19 1 4 3 -2 6 -13 5 -11 0 -14 -3 -6 -6z"/>
<path d="M1278 503 c7 -3 16 -2 19 1 4 3 -2 6 -13 5 -11 0 -14 -3 -6 -6z"/>
<path d="M1820 484 c0 -8 -4 -13 -9 -9 -12 7 5 -55 19 -69 6 -6 6 2 0 25 -12
42 -12 42 0 34 6 -3 10 3 10 14 0 12 -4 21 -10 21 -5 0 -10 -7 -10 -16z"/>
<path d="M2302 473 c-8 -139 -77 -267 -159 -294 -26 -8 -50 -6 -122 11 -57 14
-111 21 -150 18 -51 -2 -60 -1 -55 12 3 8 7 47 10 85 l4 70 -14 -75 c-17 -92
-39 -148 -85 -220 -20 -30 -39 -60 -44 -67 -15 -24 118 -7 278 36 88 24 169
45 180 47 13 3 38 -12 74 -46 36 -33 63 -50 80 -50 25 0 25 0 6 18 -11 11 -52
46 -91 79 l-72 60 34 16 c71 34 139 181 131 283 -2 31 -4 37 -5 17z m-269
-320 c48 -16 73 -30 65 -34 -7 -4 -52 -17 -98 -29 -47 -12 -128 -34 -180 -51
-52 -16 -98 -29 -102 -29 -15 0 69 115 108 149 34 30 41 33 83 27 25 -3 81
-18 124 -33z"/>
<path d="M4895 370 c-3 -5 -1 -10 4 -10 6 0 11 5 11 10 0 6 -2 10 -4 10 -3 0
-8 -4 -11 -10z"/>
<path d="M650 347 c0 -2 6 -10 14 -16 11 -9 16 -9 22 1 4 7 4 10 -1 6 -4 -4
-14 -3 -22 3 -7 6 -13 9 -13 6z"/>
<path d="M3901 304 c0 -11 3 -14 6 -6 3 7 2 16 -1 19 -3 4 -6 -2 -5 -13z"/>
<path d="M1393 273 c9 -2 25 -2 35 0 9 3 1 5 -18 5 -19 0 -27 -2 -17 -5z"/>
<path d="M5063 244 c3 -3 -21 -57 -54 -119 -32 -62 -59 -115 -59 -119 0 -13
23 -5 36 12 13 16 14 16 8 0 -4 -12 -1 -18 10 -18 9 0 16 6 16 13 0 7 12 42
26 78 29 74 42 159 23 159 -7 0 -10 -3 -6 -6z"/>
<path d="M1206 223 c-6 -14 -5 -15 5 -6 7 7 10 15 7 18 -3 3 -9 -2 -12 -12z"/>
<path d="M2875 230 c2 -3 -5 -22 -17 -40 -11 -19 -22 -45 -24 -59 -4 -21 -3
-23 11 -11 19 16 62 95 46 85 -14 -8 -14 8 -1 21 7 7 6 11 -4 11 -8 0 -13 -3
-11 -7z"/>
<path d="M4776 213 c-6 -14 -5 -15 5 -6 7 7 10 15 7 18 -3 3 -9 -2 -12 -12z"/>
<path d="M915 210 c3 -5 8 -10 11 -10 2 0 4 5 4 10 0 6 -5 10 -11 10 -5 0 -7
-4 -4 -10z"/>
<path d="M1219 133 c-13 -16 -12 -17 4 -4 16 13 21 21 13 21 -2 0 -10 -8 -17
-17z"/>
</g>
</svg>
